<svg width="68" height="49" viewBox="0 0 68 49" fill="none" xmlns="http://www.w3.org/2000/svg">
<path d="M15.5385 1.73656H14.5753L14.3202 2.66528L2.78172 44.6653L2.34268 46.2634H4H52.4615H53.4247L53.6798 45.3347L65.2183 3.33466L65.6573 1.73656H64H15.5385Z" fill="#393683" stroke="white" stroke-width="2.52683"/>
<path d="M34 23.125C37.1066 23.125 39.625 20.6066 39.625 17.5C39.625 14.3934 37.1066 11.875 34 11.875C30.8934 11.875 28.375 14.3934 28.375 17.5C28.375 20.6066 30.8934 23.125 34 23.125Z" fill="white"/>
<path d="M45.25 32.5001C45.25 29.3934 42.7317 26.8751 39.625 26.8751H28.375C25.2684 26.8751 22.75 29.3934 22.75 32.5001V38.1251H45.25V32.5001Z" fill="white"/>
</svg>
