<svg width="68" height="48" viewBox="0 0 68 48" fill="none" xmlns="http://www.w3.org/2000/svg">
<path d="M15.5385 1.73659H14.5753L14.3202 2.66531L2.78172 44.6653L2.34268 46.2634H4H52.4615H53.4247L53.6798 45.3347L65.2183 3.33469L65.6573 1.73659H64H15.5385Z" fill="#393683" stroke="white" stroke-width="2.52683"/>
<g clip-path="url(#clip0_262_11209)">
<path fill-rule="evenodd" clip-rule="evenodd" d="M21.904 19.1292V32.4244H41.9544L41.9223 27.6499C41.2356 27.6527 40.5522 27.7597 39.8897 27.9681V28.3941C39.4414 28.406 39.0153 28.6217 38.7043 28.994C38.3933 29.3664 38.2225 29.8654 38.2291 30.3823H25.6095C25.6095 29.1411 24.831 28.2634 23.8849 28.272V23.0005C24.3336 22.9893 24.7603 22.774 25.0719 22.4015C25.3834 22.029 25.5546 21.5296 25.5479 21.0123H36.5513C36.6621 20.9214 36.7681 20.8333 36.8642 20.7283C37.501 20.1039 38.1989 19.5672 38.9436 19.1292H21.904ZM49.2028 22.7534L44.1619 28.5191L44.1865 25.622C41.0329 24.8353 37.4702 25.7612 35.5633 28.5105C35.9279 22.8215 40.3849 19.9813 44.2309 19.8393L44.2531 16.8826L49.2028 22.7505V22.7534ZM34.2033 24.3155C33.9611 23.785 33.5879 23.3493 33.1309 23.0634C32.6739 22.7774 32.1536 22.6542 31.6358 22.7091C31.118 22.7641 30.626 22.9948 30.222 23.3722C29.818 23.7495 29.5201 24.2565 29.3661 24.829C29.212 25.4015 29.2087 26.0139 29.3565 26.5885C29.5044 27.1632 29.7967 27.6745 30.1966 28.0576C30.5965 28.4407 31.086 28.6785 31.6031 28.741C32.1203 28.8034 32.6419 28.6876 33.1019 28.4083C33.7187 28.0338 34.1812 27.3923 34.3877 26.6248C34.5943 25.8573 34.5279 25.0266 34.2033 24.3155ZM18.9277 15.7209V28.1072H20.3001V19.0866C20.2968 18.8832 20.3305 18.6812 20.3988 18.4936C20.4671 18.306 20.5686 18.1369 20.6968 17.9971C20.8251 17.8573 20.9772 17.7499 21.1435 17.6817C21.3097 17.6135 21.4865 17.5861 21.6625 17.6011H37.8447V15.7209H18.9277Z" fill="white"/>
</g>
<defs>
<clipPath id="clip0_262_11209">
<rect width="30.2751" height="16.7035" fill="white" transform="translate(18.9277 15.7209)"/>
</clipPath>
</defs>
</svg>
