<svg width="68" height="48" viewBox="0 0 68 48" fill="none" xmlns="http://www.w3.org/2000/svg">
<path d="M15.5385 1.73656H14.5753L14.3202 2.66528L2.78172 44.6653L2.34268 46.2634H4H52.4615H53.4247L53.6798 45.3347L65.2183 3.33466L65.6573 1.73656H64H15.5385Z" fill="#393683" stroke="white" stroke-width="2.52683"/>
<g clip-path="url(#clip0_262_11215)">
<path fill-rule="evenodd" clip-rule="evenodd" d="M33.8072 17.5622C34.2874 16.4959 34.8204 15.4875 35.4572 14.6328C36.7471 12.8956 39.8965 10.8049 41.8232 12.8297C43.5484 14.6408 42.0856 16.6197 40.0308 17.5622H44.6796C45.0397 17.5622 45.3774 17.71 45.6094 17.9456C45.8494 18.1812 46 18.5047 46 18.8581V21.3162C46 21.6697 45.8494 22.0012 45.6094 22.2288C45.3917 22.4425 45.1069 22.5822 44.7854 22.6042V34.6012C44.7854 34.9846 44.6287 35.338 44.3663 35.5876C44.112 35.8373 43.7519 35.999 43.3612 35.999H23.6693C23.2786 35.999 22.9185 35.8452 22.6642 35.5876C22.4099 35.338 22.2451 34.9846 22.2451 34.6012V22.6122C21.9155 22.5902 21.6144 22.4504 21.3906 22.2368C21.1506 22.0012 21 21.6777 21 21.3242V18.8661C21 18.5127 21.1506 18.1812 21.3906 17.9536C21.6307 17.7179 21.9603 17.5702 22.3204 17.5702H27.0527C25.0059 16.6277 23.5431 14.6488 25.2603 12.8377C27.1869 10.8069 30.3363 12.9036 31.6262 14.6408C32.263 15.5015 32.7961 16.5099 33.2762 17.5702H33.793L33.8072 17.5622ZM38.0146 17.5622C42.7163 15.5174 41.1558 12.0729 38.1794 13.7362C37.4815 14.1256 36.8976 14.8545 36.3727 15.5833C35.8783 16.2682 35.4348 16.9891 35.1052 17.5622H38.0146ZM29.075 17.5622C24.3752 15.5174 25.9337 12.0729 28.9102 13.7362C29.608 14.1256 30.1919 14.8545 30.7168 15.5833C31.2112 16.2682 31.6547 16.9891 31.9843 17.5622H29.075ZM43.6908 30.1842H35.3453V34.9167H43.3694C43.4589 34.9167 43.5423 34.8808 43.6013 34.8209C43.6624 34.761 43.699 34.6811 43.699 34.5932V30.1842H43.6908ZM31.8053 30.1842H23.3397V34.5932C23.3397 34.6811 23.3763 34.763 23.4373 34.8209C23.4984 34.8808 23.5798 34.9167 23.6693 34.9167H31.8053V30.1842ZM23.3397 27.3068H31.8053V22.097H23.3397V27.3068ZM35.3372 27.3068H43.6827V22.097H35.3372V27.3068Z" fill="white"/>
</g>
<defs>
<clipPath id="clip0_262_11215">
<rect width="25" height="24" fill="white" transform="translate(21 12)"/>
</clipPath>
</defs>
</svg>
