<svg width="159" height="50" viewBox="0 0 159 50" fill="none" xmlns="http://www.w3.org/2000/svg">
<path fill-rule="evenodd" clip-rule="evenodd" d="M24.937 0C38.7094 0 49.8742 11.193 49.8742 25C49.8742 38.807 38.7094 50 24.937 50C17.9264 50 11.593 47.0989 7.06242 42.4303L23.5596 30.4141L31.276 36.0346L28.3287 26.941L36.0453 21.3202H26.5072L23.5596 12.2259L20.612 21.3202H15.8433L2.09101 20.2546L0.917969 18.2649C3.8509 7.72945 13.4923 0 24.937 0V0Z" fill="#FFC42E"/>
<path fill-rule="evenodd" clip-rule="evenodd" d="M0.269531 21.3202C0.423004 20.2791 0.64132 19.2599 0.918614 18.2649L15.971 21.0974L15.8439 21.3202H0.269531Z" fill="#393683"/>
<path fill-rule="evenodd" clip-rule="evenodd" d="M7.06398 42.4303C6.3103 41.6535 5.60615 40.8274 4.95739 39.9578L5.78406 37.5L3.16492 37.1933C2.60512 36.1911 2.11244 35.1471 1.69243 34.0661L2.90294 32.1088L0.713588 30.9547C0.450958 29.8774 0.257732 28.7729 0.13945 27.6456L1.31542 25.8144L0.0117188 24.2595C0.0410448 23.2641 0.128697 22.2832 0.27044 21.3202H20.6136L23.5612 12.2259L26.5088 21.3202H36.0469L28.3302 26.941L31.2775 36.0346L23.5612 30.4141L7.06398 42.4303Z" fill="white"/>
<path fill-rule="evenodd" clip-rule="evenodd" d="M4.95643 39.9578C4.30083 39.0791 3.7016 38.1556 3.16395 37.1933L17.8051 30.5474L17.912 30.7309L4.95643 39.9578ZM1.69146 34.0661C1.30045 33.059 0.972321 32.0203 0.712623 30.9547C5.88541 29.8176 11.848 28.4107 16.8693 27.3255C16.8921 27.3918 16.9146 27.4581 16.9374 27.5244C12.2172 29.5814 6.58793 31.949 1.69146 34.0661ZM0.138484 27.6456C0.0472475 26.7761 0 25.8937 0 25C0 24.7524 0.00358429 24.5054 0.0107529 24.2595H15.9771L16.0061 24.4744L0.138484 27.6456Z" fill="#393683"/>
<path fill-rule="evenodd" clip-rule="evenodd" d="M36.0454 21.3202C37.1217 21.8601 38.0989 22.5696 38.9415 23.4147C40.9546 25.4325 42.1996 28.2202 42.1996 31.2993C42.1996 34.3784 40.9546 37.1661 38.9415 39.1846C36.9285 41.2024 34.1477 42.4505 31.0763 42.4505C23.0784 42.4505 15.0806 42.4505 7.0827 42.4505L7.0625 42.4303L15.8434 36.0346L23.5597 30.4141L31.276 36.0346L28.3288 26.941L36.0454 21.3202ZM15.1347 21.3202V12.2259C12.685 12.2259 10.6989 10.2353 10.6989 7.77942H15.1347H29.8329C34.3517 7.77942 38.0151 11.4521 38.0151 15.9822C38.0151 18.0209 37.2729 19.8858 36.0454 21.3202H26.5073L23.5597 12.2259L20.6121 21.3202H15.1347Z" fill="#393683"/>
<path d="M67.07 29.261C67.8256 29.261 68.5193 29.1444 69.1524 28.9105C69.7852 28.6769 70.3297 28.3035 70.7849 27.792C71.2401 27.2798 71.5956 26.6229 71.8508 25.8212C72.1066 25.0193 72.234 24.0511 72.234 22.9156C72.234 21.7798 72.1066 20.8116 71.8508 20.0096C71.5956 19.2083 71.2401 18.5517 70.7849 18.0395C70.3297 17.5273 69.7852 17.1543 69.1524 16.9204C68.5193 16.6868 67.8256 16.5699 67.07 16.5699H62.906V29.261H67.07ZM58.2422 31.5989V8.22043H62.906V14.232H67.07C68.6031 14.232 69.9964 14.4322 71.2512 14.833C72.5064 15.2342 73.5781 15.813 74.466 16.5699C75.3549 17.3271 76.0375 18.2398 76.5149 19.3083C76.9926 20.3774 77.2311 21.5795 77.2311 22.9156C77.2311 24.2513 76.9926 25.4541 76.5149 26.5226C76.0375 27.5911 75.3549 28.5038 74.466 29.261C73.5781 30.0182 72.5064 30.5973 71.2512 30.9978C69.9964 31.3986 68.6031 31.5989 67.07 31.5989H58.2422ZM85.8931 31.5989H81.2289V14.5658H85.8931V31.5989ZM86.0599 10.0576C86.0599 10.7256 85.8321 11.3097 85.3772 11.8108C84.9214 12.3112 84.3166 12.5624 83.561 12.5624C82.8057 12.5624 82.2012 12.3112 81.7454 11.8108C81.2905 11.3097 81.0627 10.7256 81.0627 10.0576C81.0627 9.38889 81.2905 8.80482 81.7454 8.30373C82.2012 7.80328 82.8057 7.55273 83.561 7.55273C84.2938 7.55273 84.8934 7.80328 85.3603 8.30373C85.8266 8.80482 86.0599 9.38889 86.0599 10.0576ZM95.3882 31.5989H90.724V8.22043H95.3882V31.5989Z" fill="white"/>
<path d="M108.881 29.261C109.636 29.261 110.331 29.1444 110.963 28.9105C111.596 28.6769 112.14 28.3035 112.596 27.792C113.051 27.2798 113.406 26.6229 113.662 25.8212C113.917 25.0193 114.045 24.0511 114.045 22.9156C114.045 21.7798 113.917 20.8116 113.662 20.0096C113.406 19.2083 113.051 18.5517 112.596 18.0395C112.14 17.5273 111.596 17.1543 110.963 16.9204C110.331 16.6868 109.636 16.5699 108.881 16.5699H104.717V29.261H108.881ZM100.053 31.5989V8.22043H104.717V14.232H108.881C110.414 14.232 111.807 14.4322 113.062 14.833C114.317 15.2342 115.389 15.813 116.277 16.5699C117.165 17.3271 117.848 18.2398 118.326 19.3083C118.803 20.3774 119.042 21.5795 119.042 22.9156C119.042 24.2513 118.803 25.4541 118.326 26.5226C117.848 27.5911 117.165 28.5038 116.277 29.261C115.389 30.0182 114.317 30.5973 113.062 30.9978C111.807 31.3986 110.414 31.5989 108.881 31.5989H100.053ZM132.868 29.929C133.956 29.929 134.972 29.7399 135.916 29.3613C136.86 28.9827 137.787 28.4486 138.698 27.7587L140.031 29.7621C139.608 30.1407 139.114 30.4856 138.548 30.7976C137.981 31.1089 137.371 31.3706 136.715 31.5822C136.061 31.7942 135.377 31.9608 134.667 32.0833C133.956 32.2058 133.245 32.2669 132.535 32.2669C130.957 32.2669 129.52 32.0611 128.22 31.6492C126.921 31.2369 125.816 30.6362 124.906 29.8454C123.995 29.0555 123.29 28.0811 122.79 26.9231C122.29 25.7654 122.041 24.4297 122.041 22.9156C122.041 21.4237 122.279 20.0936 122.757 18.9244C123.234 17.7557 123.901 16.776 124.756 15.9855C125.61 15.195 126.627 14.5939 127.804 14.1817C128.981 13.7701 130.28 13.5639 131.701 13.5639C133.034 13.5639 134.289 13.7645 135.466 14.165C136.643 14.5658 137.665 15.1509 138.531 15.9188C139.397 16.6868 140.086 17.6162 140.597 18.7072C141.108 19.7986 141.363 21.034 141.363 22.4145V24.7524H127.138C127.404 26.6007 128.042 27.9256 129.053 28.7269C130.063 29.5282 131.335 29.929 132.868 29.929ZM131.701 15.7353C131.057 15.7353 130.458 15.8574 129.903 16.1024C129.347 16.3474 128.864 16.7368 128.453 17.2709C128.042 17.806 127.709 18.4959 127.454 19.3419C127.198 20.188 127.06 21.2124 127.038 22.4145H136.366C136.366 21.2571 136.232 20.2549 135.966 19.4086C135.7 18.5625 135.35 17.8667 134.917 17.3212C134.483 16.776 133.984 16.3749 133.417 16.1191C132.851 15.8633 132.279 15.7353 131.701 15.7353ZM146.027 16.5699H142.862V14.232H146.027V8.88845H150.691V14.232H155.855V16.5699H150.691V25.2538C150.691 26.0999 150.786 26.8176 150.974 27.4072C151.163 27.9978 151.418 28.4767 151.741 28.8438C152.062 29.211 152.435 29.4841 152.857 29.6618C153.279 29.8401 153.723 29.929 154.19 29.929C154.856 29.929 155.5 29.8235 156.121 29.6118C156.744 29.4001 157.266 29.1721 157.687 28.9271L158.687 31.0981C158.021 31.4323 157.26 31.7106 156.405 31.9327C155.55 32.1562 154.7 32.2669 153.857 32.2669C151.347 32.2669 149.414 31.6436 148.059 30.3971C146.704 29.1496 146.027 27.4353 146.027 25.2538V16.5699Z" fill="#FFC42E"/>
<path d="M61.0909 36.8735C60.8084 36.8735 60.5444 36.9231 60.2981 37.0231C60.0517 37.1227 59.8377 37.2752 59.6552 37.4804C59.4727 37.6855 59.3274 37.9452 59.2192 38.2585C59.1117 38.5714 59.0576 38.9419 59.0576 39.3688C59.0576 39.7964 59.1117 40.1665 59.2192 40.4798C59.3274 40.7931 59.4727 41.0528 59.6552 41.2579C59.8377 41.463 60.0517 41.6156 60.2981 41.7152C60.5444 41.8152 60.8084 41.8648 61.0909 41.8648C61.3727 41.8648 61.6367 41.8152 61.883 41.7152C62.1293 41.6156 62.3441 41.463 62.5265 41.2579C62.7093 41.0528 62.8543 40.7931 62.9622 40.4798C63.0704 40.1665 63.1238 39.7964 63.1238 39.3688C63.1238 38.9419 63.0704 38.5714 62.9622 38.2585C62.8543 37.9452 62.7093 37.6855 62.5265 37.4804C62.3441 37.2752 62.1293 37.1227 61.883 37.0231C61.6367 36.9231 61.3727 36.8735 61.0909 36.8735ZM61.0909 36.291C61.5888 36.291 62.0407 36.3573 62.4477 36.4909C62.8543 36.6236 63.203 36.8205 63.493 37.0809C63.784 37.3422 64.0095 37.6636 64.1695 38.0462C64.3298 38.4293 64.4102 38.8697 64.4102 39.3688C64.4102 39.8686 64.3298 40.3089 64.1695 40.6921C64.0095 41.0746 63.784 41.3961 63.493 41.6574C63.203 41.9177 62.8543 42.1147 62.4477 42.2473C62.0407 42.3806 61.5888 42.4473 61.0909 42.4473C60.593 42.4473 60.1391 42.3806 59.7301 42.2473C59.3202 42.1147 58.9706 41.9177 58.6803 41.6574C58.3893 41.3961 58.1651 41.0746 58.0077 40.6921C57.85 40.3089 57.7715 39.8686 57.7715 39.3688C57.7715 38.8697 57.85 38.4293 58.0077 38.0462C58.1651 37.6636 58.3893 37.3422 58.6803 37.0809C58.9706 36.8205 59.3202 36.6236 59.7301 36.4909C60.1391 36.3573 60.593 36.291 61.0909 36.291ZM71.3817 36.4573V42.281H69.8049L66.6925 37.5389H66.6097V42.281H65.4064V36.4573H66.9831L70.0949 41.1994H70.1784V36.4573H71.3817ZM77.3153 41.6574V42.281H72.5437V36.4573H73.7467V41.6574H77.3153ZM79.2658 42.281H78.0625V36.4573H79.2658V42.281ZM86.4028 36.4573V42.281H84.8264L81.7139 37.5389H81.6311V42.281H80.4281V36.4573H82.0049L85.1164 41.1994H85.1998V36.4573H86.4028ZM88.7685 37.0809V38.9951H91.7972V39.6187H88.7685V41.6574H92.6271V42.281H87.5651V36.4573H92.6271V37.0809H88.7685ZM96.3623 36.4573H99.1838C99.61 36.4573 99.9791 36.4949 100.291 36.5693C100.604 36.6445 100.863 36.75 101.067 36.8855C101.272 37.0214 101.424 37.1835 101.524 37.3726C101.624 37.5611 101.674 37.7692 101.674 37.9962C101.674 38.2902 101.59 38.5453 101.424 38.7619C101.258 38.9781 101.009 39.1385 100.677 39.244C101.093 39.328 101.417 39.49 101.653 39.7308C101.888 39.9725 102.005 40.2818 102.005 40.6585C102.005 41.1576 101.799 41.5529 101.387 41.8439C100.975 42.1356 100.323 42.281 99.4324 42.281H96.3623V36.4573ZM97.5656 39.6187V41.6574H99.4324C99.8475 41.6574 100.166 41.5738 100.387 41.4072C100.608 41.2409 100.719 40.9913 100.719 40.6585C100.719 40.3037 100.608 40.0414 100.387 39.8729C100.166 39.7033 99.8475 39.6187 99.4324 39.6187H97.5656ZM99.1838 38.9951C99.9863 38.9951 100.387 38.6616 100.387 37.9962C100.387 37.7025 100.286 37.4765 100.084 37.3184C99.8824 37.1603 99.5819 37.0809 99.1838 37.0809H97.5656V38.9951H99.1838ZM106.155 36.8735C105.872 36.8735 105.608 36.9231 105.362 37.0231C105.115 37.1227 104.901 37.2752 104.719 37.4804C104.536 37.6855 104.391 37.9452 104.283 38.2585C104.175 38.5714 104.121 38.9419 104.121 39.3688C104.121 39.7964 104.175 40.1665 104.283 40.4798C104.391 40.7931 104.536 41.0528 104.719 41.2579C104.901 41.463 105.115 41.6156 105.362 41.7152C105.608 41.8152 105.872 41.8648 106.155 41.8648C106.436 41.8648 106.701 41.8152 106.947 41.7152C107.193 41.6156 107.408 41.463 107.59 41.2579C107.773 41.0528 107.918 40.7931 108.026 40.4798C108.134 40.1665 108.188 39.7964 108.188 39.3688C108.188 38.9419 108.134 38.5714 108.026 38.2585C107.918 37.9452 107.773 37.6855 107.59 37.4804C107.408 37.2752 107.193 37.1227 106.947 37.0231C106.701 36.9231 106.436 36.8735 106.155 36.8735ZM106.155 36.291C106.652 36.291 107.104 36.3573 107.511 36.4909C107.918 36.6236 108.267 36.8205 108.557 37.0809C108.848 37.3422 109.073 37.6636 109.233 38.0462C109.394 38.4293 109.474 38.8697 109.474 39.3688C109.474 39.8686 109.394 40.3089 109.233 40.6921C109.073 41.0746 108.848 41.3961 108.557 41.6574C108.267 41.9177 107.918 42.1147 107.511 42.2473C107.104 42.3806 106.652 42.4473 106.155 42.4473C105.657 42.4473 105.203 42.3806 104.794 42.2473C104.384 42.1147 104.034 41.9177 103.744 41.6574C103.453 41.3961 103.229 41.0746 103.071 40.6921C102.914 40.3089 102.835 39.8686 102.835 39.3688C102.835 38.8697 102.914 38.4293 103.071 38.0462C103.229 37.6636 103.453 37.3422 103.744 37.0809C104.034 36.8205 104.384 36.6236 104.794 36.4909C105.203 36.3573 105.657 36.291 106.155 36.291ZM113.624 36.8735C113.341 36.8735 113.077 36.9231 112.831 37.0231C112.584 37.1227 112.37 37.2752 112.188 37.4804C112.005 37.6855 111.86 37.9452 111.752 38.2585C111.644 38.5714 111.59 38.9419 111.59 39.3688C111.59 39.7964 111.644 40.1665 111.752 40.4798C111.86 40.7931 112.005 41.0528 112.188 41.2579C112.37 41.463 112.584 41.6156 112.831 41.7152C113.077 41.8152 113.341 41.8648 113.624 41.8648C113.906 41.8648 114.17 41.8152 114.416 41.7152C114.662 41.6156 114.877 41.463 115.06 41.2579C115.242 41.0528 115.387 40.7931 115.495 40.4798C115.603 40.1665 115.657 39.7964 115.657 39.3688C115.657 38.9419 115.603 38.5714 115.495 38.2585C115.387 37.9452 115.242 37.6855 115.06 37.4804C114.877 37.2752 114.662 37.1227 114.416 37.0231C114.17 36.9231 113.906 36.8735 113.624 36.8735ZM113.624 36.291C114.121 36.291 114.573 36.3573 114.98 36.4909C115.387 36.6236 115.735 36.8205 116.026 37.0809C116.317 37.3422 116.542 37.6636 116.702 38.0462C116.862 38.4293 116.943 38.8697 116.943 39.3688C116.943 39.8686 116.862 40.3089 116.702 40.6921C116.542 41.0746 116.317 41.3961 116.026 41.6574C115.735 41.9177 115.387 42.1147 114.98 42.2473C114.573 42.3806 114.121 42.4473 113.624 42.4473C113.126 42.4473 112.672 42.3806 112.263 42.2473C111.853 42.1147 111.503 41.9177 111.213 41.6574C110.922 41.3961 110.698 41.0746 110.54 40.6921C110.383 40.3089 110.304 39.8686 110.304 39.3688C110.304 38.8697 110.383 38.4293 110.54 38.0462C110.698 37.6636 110.922 37.3422 111.213 37.0809C111.503 36.8205 111.853 36.6236 112.263 36.4909C112.672 36.3573 113.126 36.291 113.624 36.291ZM121.674 39.328L123.872 42.281H122.504L120.595 39.702H119.142V42.281H117.939V36.4573H119.142V39.0778H120.512L122.42 36.4573H123.748L121.674 39.328ZM128.479 41.4493H128.562L130.72 36.4573H132.504V42.281H131.3V37.6218H131.218L129.226 42.281H127.815L125.823 37.6218H125.74V42.281H124.537V36.4573H126.321L128.479 41.4493ZM135.2 40.243H137.773L136.528 37.1645H136.445L135.2 40.243ZM137.441 36.4573L139.807 42.281H138.611L138.064 40.8666H134.91L134.362 42.281H133.167L135.532 36.4573H137.441ZM144.204 39.328L146.404 42.281H145.034L143.126 39.702H141.674V42.281H140.47V36.4573H141.674V39.0778H143.042L144.951 36.4573H146.279L144.204 39.328ZM148.271 37.0809V38.9951H151.3V39.6187H148.271V41.6574H152.13V42.281H147.068V36.4573H152.13V37.0809H148.271ZM155.948 36.4573C156.362 36.4573 156.734 36.503 157.064 36.5945C157.393 36.6863 157.671 36.8192 157.898 36.994C158.125 37.1688 158.299 37.3821 158.421 37.6346C158.542 37.8868 158.603 38.1739 158.603 38.4953C158.603 38.9393 158.493 39.3133 158.271 39.6187C158.05 39.9238 157.732 40.1564 157.317 40.3174L158.686 42.281H157.317L156.097 40.534H155.948H154.164V42.281H152.96V36.4573H155.948ZM154.164 37.0809V39.9094H155.948C156.385 39.9094 156.722 39.7945 156.96 39.5645C157.198 39.3342 157.317 38.9781 157.317 38.4953C157.317 38.0132 157.198 37.6561 156.96 37.4262C156.722 37.1962 156.385 37.0809 155.948 37.0809H154.164Z" fill="white"/>
</svg>
