<svg width="64" height="22" viewBox="0 0 64 22" fill="none" xmlns="http://www.w3.org/2000/svg">
<path d="M0.546064 18.8491H1.02464L0.57645 20.6513C0.508082 20.9162 0.523275 21.1221 0.614433 21.2545C0.705591 21.387 0.872714 21.4532 1.1234 21.4532C1.36649 21.4532 1.57159 21.387 1.73112 21.2545C1.89065 21.1221 1.997 20.9162 2.06536 20.6513L2.51356 18.8491H2.99973L2.54394 20.6955C2.44519 21.0927 2.27047 21.3943 2.01219 21.5929C1.76151 21.7915 1.42726 21.8945 1.01705 21.8945C0.606836 21.8945 0.325765 21.7989 0.173835 21.6003C0.0219051 21.4017 -0.00848079 21.1001 0.0902738 20.7028L0.546064 18.8491Z" fill="white"/>
<path d="M2.92969 21.8136L3.68934 18.7314L5.13267 20.541C5.17066 20.5925 5.20864 20.644 5.24662 20.7028C5.2846 20.7617 5.32259 20.8279 5.36817 20.9015L5.87713 18.8491H6.32533L5.56568 21.924L4.09195 20.0776L3.97801 19.9231C3.94002 19.8642 3.90964 19.8127 3.88685 19.7465L3.37788 21.8063H2.92969V21.8136Z" fill="white"/>
<path d="M6.28711 21.8136L7.01637 18.8491H7.50255L6.77329 21.8136H6.28711Z" fill="white"/>
<path d="M7.46484 21.8136L8.19411 18.8491H9.85774L9.75899 19.261H8.58153L8.39921 19.9966H9.57667L9.47032 20.4159H8.29286L7.95102 21.8063H7.46484V21.8136Z" fill="white"/>
<path d="M9.66797 21.8136L10.3972 18.8491H10.8834L10.1541 21.8136H9.66797Z" fill="white"/>
<path d="M10.8457 21.8136L11.575 18.8491H13.2386L13.1398 19.261H11.9624L11.7801 20.004H12.9575L12.8512 20.4233H11.6737L11.4382 21.3796H12.6157L12.5093 21.8136H10.8457Z" fill="white"/>
<path d="M13.0723 21.8136L13.8015 18.8491H14.4548C14.8802 18.8491 15.1765 18.8711 15.336 18.9153C15.4956 18.9594 15.6323 19.0256 15.7386 19.1286C15.8754 19.261 15.9665 19.4302 16.0045 19.6288C16.0425 19.8348 16.0273 20.0702 15.9665 20.3277C15.8982 20.5925 15.7994 20.8205 15.6627 21.0265C15.5259 21.2325 15.3512 21.3943 15.1461 21.5267C14.9942 21.6297 14.8271 21.6959 14.6447 21.74C14.47 21.7842 14.2041 21.8063 13.8547 21.8063H13.0723V21.8136ZM13.6648 21.3722H14.075C14.2953 21.3722 14.47 21.3575 14.5916 21.3281C14.7131 21.2987 14.8195 21.2472 14.9182 21.181C15.055 21.0853 15.1689 20.9676 15.2601 20.8205C15.3512 20.6808 15.4196 20.5116 15.4652 20.3203C15.5107 20.129 15.5259 19.9672 15.5031 19.8274C15.4804 19.6877 15.4272 19.5626 15.336 19.467C15.2677 19.3934 15.1841 19.3493 15.0701 19.3199C14.9562 19.2904 14.7815 19.2757 14.5308 19.2757H14.1814L13.6648 21.3722Z" fill="white"/>
<path d="M18.1985 20.4821L17.8718 21.8136H17.416L18.1453 18.8491H18.8821C19.1024 18.8491 19.2544 18.8638 19.3531 18.8858C19.4519 18.9079 19.5278 18.9447 19.5886 19.0035C19.6646 19.0697 19.7178 19.1654 19.7405 19.2831C19.7633 19.4008 19.7557 19.5258 19.7254 19.6656C19.6874 19.8054 19.6342 19.9378 19.5506 20.0555C19.4671 20.1732 19.3683 20.2688 19.262 20.335C19.1708 20.3865 19.0721 20.4306 18.9657 20.4527C18.8594 20.4748 18.6922 20.4895 18.4795 20.4895H18.1985V20.4821ZM18.3276 20.0849H18.4491C18.715 20.0849 18.9049 20.0555 19.0113 19.9966C19.1176 19.9378 19.186 19.8348 19.224 19.6877C19.262 19.5332 19.2392 19.4155 19.1632 19.3566C19.0797 19.2904 18.9125 19.261 18.6618 19.261H18.5403L18.3276 20.0849Z" fill="white"/>
<path d="M21.3738 21.8136L21.2219 21.0486H20.0368L19.5051 21.8136H18.9961L21.1991 18.7314L21.8828 21.8136H21.3738ZM20.3255 20.644H21.1535L21.0168 19.9672C21.0092 19.9231 21.0016 19.8716 21.0016 19.8201C20.994 19.7613 20.994 19.7024 20.994 19.6362C20.9636 19.7024 20.9332 19.7613 20.8952 19.8201C20.8648 19.879 20.8345 19.9304 20.8041 19.9746L20.3255 20.644Z" fill="white"/>
<path d="M22.5821 21.8137L22.9163 20.4601L22.3086 18.8564H22.8176L23.1974 19.8642C23.205 19.8937 23.2126 19.9231 23.2278 19.9672C23.243 20.0114 23.2506 20.0555 23.2658 20.0996L23.3569 19.9672C23.3873 19.9231 23.4177 19.8863 23.4481 19.8495L24.3369 18.8564H24.823L23.4025 20.4527L23.0682 21.8063H22.5821V21.8137Z" fill="white"/>
<path d="M27.2094 20.3498C27.2094 20.3277 27.217 20.2615 27.2322 20.1585C27.2398 20.0702 27.2474 20.004 27.255 19.9452C27.2246 20.0114 27.1942 20.0776 27.1562 20.1511C27.1182 20.2173 27.0727 20.2909 27.0195 20.3571L25.8496 21.9387L25.4698 20.3277C25.4546 20.2615 25.4394 20.1953 25.4318 20.1364C25.4242 20.0776 25.4166 20.0114 25.4166 19.9525C25.4014 20.0114 25.3786 20.0776 25.3559 20.1511C25.3331 20.2173 25.3027 20.2909 25.2647 20.3645L24.581 21.821H24.1328L25.5989 18.7314L26.0167 20.5999C26.0243 20.6293 26.0319 20.6808 26.0395 20.747C26.0471 20.8132 26.0623 20.9015 26.0775 21.0045C26.1307 20.9162 26.1991 20.8132 26.2902 20.6808C26.313 20.644 26.3358 20.6219 26.3434 20.5999L27.6652 18.7314L27.6196 21.821H27.1714L27.2094 20.3498Z" fill="white"/>
<path d="M28.0137 21.8136L28.7429 18.8491H30.4066L30.3078 19.261H29.1304L28.948 20.004H30.1255L30.0192 20.4233H28.8417L28.6062 21.3796H29.7837L29.6773 21.8136H28.0137Z" fill="white"/>
<path d="M30.2324 21.8136L30.9921 18.7314L32.4354 20.541C32.4734 20.5925 32.5114 20.644 32.5494 20.7028C32.5873 20.7617 32.6253 20.8279 32.6709 20.9015L33.1799 18.8491H33.6281L32.8684 21.924L31.3947 20.0776L31.2807 19.9231C31.2428 19.8642 31.2124 19.8127 31.1896 19.7465L30.6806 21.8063H30.2324V21.8136Z" fill="white"/>
<path d="M35.1766 19.2537L34.5461 21.8063H34.0599L34.6904 19.2537H33.9004L33.9991 18.8417H36.0654L35.9666 19.2537H35.1766Z" fill="white"/>
<path d="M35.6861 21.2178L36.1191 21.0413C36.1267 21.1737 36.1647 21.2767 36.2483 21.3429C36.3318 21.4091 36.4458 21.4459 36.5977 21.4459C36.742 21.4459 36.8636 21.4091 36.9699 21.3282C37.0763 21.2472 37.1446 21.1442 37.175 21.0118C37.2206 20.8353 37.1143 20.6808 36.856 20.5484C36.818 20.5263 36.7952 20.5116 36.7724 20.5043C36.4838 20.3424 36.3014 20.2026 36.2255 20.0702C36.1495 19.9378 36.1343 19.7833 36.1799 19.5994C36.2407 19.3567 36.3698 19.1654 36.5749 19.0109C36.78 18.8638 37.0079 18.7829 37.2814 18.7829C37.5017 18.7829 37.6764 18.827 37.8055 18.908C37.9347 18.9889 38.0031 19.1139 38.0258 19.2684L37.6004 19.4597C37.5625 19.364 37.5169 19.2978 37.4561 19.2537C37.3953 19.2096 37.3194 19.1875 37.2282 19.1875C37.0991 19.1875 36.9851 19.2243 36.894 19.2905C36.8028 19.3567 36.742 19.445 36.7116 19.5627C36.6661 19.7392 36.7952 19.9084 37.0915 20.0629C37.1143 20.0776 37.1295 20.085 37.1447 20.0923C37.4029 20.2247 37.5777 20.3571 37.6536 20.4895C37.7296 20.622 37.7448 20.7764 37.6992 20.9751C37.6308 21.2546 37.4865 21.4753 37.2662 21.6445C37.0459 21.8063 36.7876 21.8946 36.4838 21.8946C36.2331 21.8946 36.0356 21.8357 35.8988 21.718C35.7469 21.6003 35.6785 21.4311 35.6861 21.2178Z" fill="white"/>
<path d="M39.2637 21.8136L39.9929 18.8491H40.4791L39.7499 21.8136H39.2637Z" fill="white"/>
<path d="M40.4492 21.8136L41.2089 18.7314L42.6522 20.541C42.6902 20.5925 42.7282 20.644 42.7662 20.7028C42.8041 20.7617 42.8421 20.8279 42.8877 20.9015L43.3967 18.8491H43.8449L43.0852 21.924L41.6115 20.0776L41.4975 19.9231C41.4596 19.8642 41.4292 19.8127 41.4064 19.7465L40.8974 21.8063H40.4492V21.8136Z" fill="white"/>
<path d="M45.3954 19.2537L44.7648 21.8063H44.2787L44.9092 19.2537H44.1191L44.2179 18.8417H46.2841L46.1854 19.2537H45.3954Z" fill="white"/>
<path d="M45.918 21.8136L46.6472 18.8491H48.3185L48.2197 19.261H47.0422L46.8599 20.004H48.0374L47.931 20.4233H46.7536L46.5181 21.3796H47.6955L47.5892 21.8136H45.918Z" fill="white"/>
<path d="M48.9192 20.4822L48.5925 21.8063H48.1367L48.866 18.8417H49.5421C49.7396 18.8417 49.8915 18.8564 49.9903 18.8785C50.0966 18.9006 50.1802 18.9447 50.241 19.0036C50.3169 19.0771 50.3625 19.1654 50.3853 19.2831C50.4081 19.3935 50.4005 19.5185 50.3701 19.6583C50.3093 19.8937 50.2106 20.0849 50.0587 20.2174C49.9067 20.3498 49.7168 20.4307 49.4889 20.4601L50.1802 21.8063H49.6332L48.9723 20.4822H48.9192ZM49.0407 20.107H49.1319C49.3902 20.107 49.5649 20.0776 49.6636 20.0187C49.7624 19.9599 49.8308 19.8569 49.8687 19.7024C49.9067 19.5406 49.8915 19.4229 49.8156 19.3567C49.7396 19.2905 49.5801 19.2537 49.337 19.2537H49.2458L49.0407 20.107Z" fill="white"/>
<path d="M50.4766 21.8136L51.2058 18.8491H52.8695L52.7707 19.261H51.5933L51.4109 19.9966H52.5884L52.4821 20.4159H51.3046L50.9627 21.8063H50.4766V21.8136Z" fill="white"/>
<path d="M54.4871 21.8136L54.3351 21.0486H53.1501L52.6183 21.8136H52.1094L54.3124 18.7314L54.996 21.8136H54.4871ZM53.4312 20.644H54.2592L54.1224 19.9672C54.1149 19.9231 54.1073 19.8716 54.1073 19.8201C54.0997 19.7613 54.0997 19.7024 54.0997 19.6362C54.0693 19.7024 54.0389 19.7613 54.0009 19.8201C53.9705 19.879 53.9401 19.9304 53.9097 19.9746L53.4312 20.644Z" fill="white"/>
<path d="M58.1575 19.57C58.0511 19.4523 57.922 19.364 57.7853 19.3125C57.6485 19.2537 57.4966 19.2243 57.3219 19.2243C56.9952 19.2243 56.7066 19.3273 56.4483 19.5332C56.19 19.7392 56.0229 20.0114 55.9393 20.3424C55.8633 20.6587 55.8937 20.9236 56.0457 21.1369C56.19 21.3429 56.4179 21.4458 56.7218 21.4458C56.8965 21.4458 57.0712 21.4164 57.2459 21.3502C57.4206 21.2914 57.5954 21.1957 57.7777 21.0707L57.6409 21.615C57.489 21.7107 57.3295 21.7769 57.1624 21.821C56.9952 21.8652 56.8281 21.8872 56.6458 21.8872C56.4179 21.8872 56.2128 21.8504 56.0381 21.7769C55.8633 21.7033 55.719 21.593 55.6051 21.4458C55.4911 21.3061 55.4227 21.1369 55.3924 20.9456C55.362 20.7544 55.3696 20.5484 55.4303 20.3277C55.4835 20.107 55.5747 19.9084 55.6962 19.7171C55.8178 19.5259 55.9773 19.3567 56.1596 19.2169C56.3419 19.0698 56.5394 18.9594 56.7521 18.8859C56.9648 18.8123 57.1775 18.7755 57.3978 18.7755C57.5726 18.7755 57.7321 18.7976 57.884 18.8491C58.0284 18.9006 58.1651 18.9742 58.2866 19.0771L58.1575 19.57Z" fill="white"/>
<path d="M58.2031 21.8136L58.9324 18.8491H60.596L60.4973 19.261H59.3198L59.1375 20.004H60.315L60.2086 20.4233H59.0311L58.7957 21.3796H59.9731L59.8668 21.8136H58.2031Z" fill="white"/>
<path d="M49.3603 16.2671H46.0254L50.6593 0.0613098H53.9941L49.3603 16.2671Z" fill="white"/>
<path d="M47.6271 0.56888C47.3992 0.259919 47.0422 0.105438 46.556 0.105438H28.2333L27.3293 3.28333H43.996L43.0237 6.67454H29.6918V6.66719H26.3569L23.5918 16.3406H26.9267L28.7802 9.85243H43.7681C44.2391 9.85243 44.6797 9.69795 45.0899 9.38899C45.5001 9.08003 45.7736 8.6975 45.9027 8.24142L47.7563 1.75323C47.9006 1.26772 47.855 0.877841 47.6271 0.56888Z" fill="white"/>
<path d="M21.6486 15.2519C21.4663 15.8919 20.8586 16.3406 20.1749 16.3406H2.98401C2.51303 16.3406 2.16359 16.1861 1.93569 15.8772C1.7078 15.5682 1.65462 15.1857 1.79136 14.7296L5.98463 0.105438H9.3195L5.57442 13.1701H18.9139L22.659 0.105438H25.9938L21.6486 15.2519Z" fill="white"/>
<path d="M55.1035 16.3333L59.7526 0.0907288L63.9686 8.212L55.1035 16.3333Z" fill="white"/>
<path d="M52.1328 16.3333L56.7895 0.0907288L61.0055 8.212L52.1328 16.3333Z" fill="white"/>
</svg>
