<svg width="71" height="22" viewBox="0 0 71 22" fill="none" xmlns="http://www.w3.org/2000/svg">
<path d="M70.7246 6.49968C70.0807 4.68228 68.3262 3.37723 66.2653 3.37723H66.2222C64.8824 3.37723 63.6751 3.92772 62.8156 4.81145C61.9547 3.92772 60.7473 3.37723 59.409 3.37723H59.3659C58.1883 3.37723 57.1118 3.80293 56.285 4.50759V4.14939C56.2568 3.79265 55.9594 3.5123 55.5921 3.5123H52.4309C52.0443 3.5123 51.7321 3.82057 51.7321 4.2037V21.1518C51.7321 21.5349 52.0443 21.8432 52.4309 21.8432H55.5921C55.9445 21.8432 56.2345 21.5834 56.2806 21.2472L56.2791 9.08041C56.2788 9.03972 56.2807 8.99904 56.285 8.95857C56.3356 8.4154 56.7385 7.96914 57.375 7.91334H57.9578C58.2239 7.93681 58.4485 8.02932 58.6254 8.16876C58.9005 8.38456 59.0536 8.71634 59.0536 9.08041L59.0655 21.187C59.0655 21.5702 59.3792 21.8799 59.7644 21.8799H62.9255C63.2988 21.8799 63.6021 21.5863 63.62 21.2208L63.6185 9.06427C63.617 8.66495 63.8044 8.30383 64.133 8.08949C64.2951 7.9867 64.4899 7.91775 64.7144 7.8972H65.2972C65.9812 7.95591 66.3946 8.46825 66.3931 9.06427L66.405 21.1547C66.405 21.5379 66.7188 21.8461 67.1038 21.8461H70.265C70.6502 21.8461 70.9639 21.5379 70.9639 21.1547V8.15116C70.9639 7.26448 70.8628 6.88721 70.7245 6.49968H70.7246ZM49.3238 3.55645H47.5157V0.655676C47.5157 0.307752 47.2302 0.0259094 46.8778 0.0259094C46.8362 0.0259094 46.796 0.0317352 46.7574 0.0391006C44.753 0.582271 45.1545 3.32305 41.4952 3.55645H41.1398C41.0862 3.55645 41.0357 3.56378 40.9866 3.57406H40.9837L40.9866 3.57551C40.6743 3.64455 40.4395 3.91757 40.4395 4.24643V7.36738C40.4395 7.7476 40.7532 8.05732 41.1398 8.05732H43.0475L43.0446 21.2914C43.0446 21.6687 43.3538 21.974 43.7359 21.974H46.8615C47.2421 21.974 47.5514 21.6687 47.5514 21.2914L47.5529 8.05732H49.3238C49.7089 8.05732 50.0226 7.7476 50.0226 7.36738V4.24643C50.0226 3.86622 49.7089 3.55649 49.3238 3.55649" fill="white"/>
<path d="M37.9525 3.55657H34.7914C34.4062 3.55657 34.0939 3.86633 34.0939 4.24651V10.6999C34.0865 11.0992 33.7594 11.4192 33.3535 11.4192H32.0301C31.6197 11.4192 31.2881 11.0933 31.2881 10.6881L31.2762 4.24655C31.2762 3.86633 30.9625 3.55661 30.5774 3.55661H27.4162C27.0296 3.55661 26.7174 3.86633 26.7174 4.24655V11.3194C26.7174 14.0058 28.6578 15.9216 31.3803 15.9216C31.3803 15.9216 33.4234 15.9216 33.4858 15.9333C33.8546 15.9744 34.1415 16.2797 34.1415 16.6556C34.1415 17.027 33.8605 17.3308 33.4962 17.3764C33.4784 17.3793 33.4621 17.3837 33.4427 17.3866L28.8198 17.4028C28.4332 17.4028 28.121 17.7125 28.121 18.0927V21.2123C28.121 21.5939 28.4332 21.9022 28.8198 21.9022H33.9884C36.7124 21.9022 38.6514 19.9879 38.6514 17.3001V4.24655C38.6514 3.86633 38.3391 3.55661 37.9525 3.55661V3.55657ZM7.35427 9.2752V11.2012C7.35427 11.6049 7.02269 11.9338 6.6138 11.9338L4.60792 11.9352V8.07584H6.6138C7.02269 8.07584 7.35427 8.40171 7.35427 8.80689V9.2752ZM7.63233 3.55582H0.72258C0.343407 3.55582 0.0371094 3.85971 0.0371094 4.23256V7.29044C0.0371094 7.2963 0.0385846 7.30217 0.0385846 7.30804C0.0385846 7.32273 0.0371094 7.33742 0.0371094 7.35061V21.191C0.0371094 21.5668 0.322585 21.8736 0.676511 21.8824H3.89712C4.28224 21.8824 4.59595 21.5741 4.59595 21.1925L4.60788 16.4493H7.63229C10.163 16.4493 11.9265 14.7156 11.9265 12.2068V7.80427C11.9265 5.29544 10.163 3.55586 7.63229 3.55586L7.63233 3.55582ZM20.4706 16.6023V17.0897C20.4706 17.1293 20.4647 17.1675 20.4587 17.2042C20.4513 17.2386 20.4413 17.2725 20.429 17.3055C20.3308 17.5785 20.0543 17.7767 19.7256 17.7767H18.4097C17.9993 17.7767 17.6648 17.4684 17.6648 17.0897V16.501C17.6648 16.4937 17.6633 16.4863 17.6633 16.479L17.6648 14.9126V14.4223L17.6663 14.4179C17.6677 14.0406 17.9993 13.7353 18.4097 13.7353H19.7256C20.1375 13.7353 20.4706 14.0421 20.4706 14.4223L20.4706 16.6023ZM19.9681 3.57375H15.5816C15.1935 3.57375 14.8798 3.86442 14.8798 4.22112V5.43517C14.8798 5.4425 14.8813 5.45132 14.8813 5.45864C14.8813 5.46747 14.8798 5.47625 14.8798 5.48507V7.14833C14.8798 7.52563 15.2129 7.8339 15.6233 7.8339H19.8C20.1301 7.88529 20.3918 8.12311 20.429 8.4945V8.89673C20.3918 9.25052 20.1331 9.50885 19.8178 9.53823H17.7496C14.9988 9.53823 13.039 11.3424 13.039 13.8762V17.5051C13.039 20.0242 14.7237 21.8166 17.4551 21.8166H23.1872C24.2162 21.8166 25.0504 21.0474 25.0504 20.1005V8.25814C25.0504 5.38674 23.5515 3.57375 19.968 3.57375H19.9681Z" fill="white"/>
</svg>
