<svg width="73" height="22" viewBox="0 0 73 22" fill="none" xmlns="http://www.w3.org/2000/svg">
<g clip-path="url(#clip0_424_1167)">
<path d="M20.9824 13.1013C22.2061 8.18661 18.997 3.26174 13.8147 2.10125C8.63243 0.940764 3.43936 3.98411 2.21568 8.89876C0.991992 13.8134 4.20107 18.7383 9.38336 19.8988C14.5656 21.0592 19.7587 18.0159 20.9824 13.1013Z" fill="white"/>
<path d="M50.7189 16.2256V12.9052C50.7189 12.0879 50.3957 11.6792 49.5877 11.6792C49.2646 11.6792 48.8875 11.7303 48.672 11.7814V16.6343C48.672 16.7875 48.5104 16.9408 48.3489 16.9408H47.11C46.9484 16.9408 46.7868 16.7875 46.7868 16.6343V10.9641C46.7868 10.7598 46.9484 10.6065 47.11 10.5554C47.9179 10.3 48.7259 10.1468 49.5877 10.1468C51.5269 10.1468 52.6042 11.1173 52.6042 12.9052V16.6854C52.6042 16.8386 52.4426 16.9919 52.281 16.9919H51.5269C51.0421 16.9919 50.7189 16.6343 50.7189 16.2256ZM55.5667 14.2334L55.5128 14.6931C55.5128 15.3061 55.9438 15.6637 56.644 15.6637C57.1826 15.6637 57.6674 15.5105 58.2061 15.255C58.2599 15.255 58.3138 15.204 58.3677 15.204C58.4754 15.204 58.5293 15.255 58.5831 15.3061C58.637 15.3572 58.7447 15.5105 58.7447 15.5105C58.8524 15.6637 58.9602 15.868 58.9602 16.0213C58.9602 16.2767 58.7986 16.5321 58.5831 16.6343C57.9906 16.9408 57.2904 17.094 56.5363 17.094C55.6744 17.094 54.9742 16.8897 54.4355 16.481C53.8969 16.0213 53.5737 15.4083 53.5737 14.642V12.6498C53.5737 11.0663 54.651 10.0957 56.4824 10.0957C58.2599 10.0957 59.2834 11.0152 59.2834 12.6498V13.8758C59.2834 14.0291 59.1218 14.1823 58.9602 14.1823H55.5667V14.2334ZM55.5128 13.1096H57.5597V12.5987C57.5597 11.9857 57.1826 11.5771 56.5363 11.5771C55.8899 11.5771 55.5128 11.9347 55.5128 12.5987V13.1096ZM69.2483 14.2334L69.1944 14.6931C69.1944 15.3061 69.6254 15.6637 70.3256 15.6637C70.8642 15.6637 71.349 15.5105 71.8877 15.255C71.9415 15.255 71.9954 15.204 72.0493 15.204C72.157 15.204 72.2109 15.255 72.2647 15.3061C72.3186 15.3572 72.4263 15.5105 72.4263 15.5105C72.534 15.6637 72.6418 15.868 72.6418 16.0213C72.6418 16.2767 72.4802 16.5321 72.2647 16.6343C71.6722 16.9408 70.972 17.094 70.2179 17.094C69.356 17.094 68.6558 16.8897 68.1171 16.481C67.5785 16.0213 67.2553 15.4083 67.2553 14.642V12.6498C67.2553 11.0663 68.3326 10.0957 70.164 10.0957C71.9415 10.0957 72.965 11.0152 72.965 12.6498V13.8758C72.965 14.0291 72.8034 14.1823 72.6418 14.1823H69.2483V14.2334ZM69.1944 13.1096H71.2413V12.5987C71.2413 11.9857 70.8642 11.5771 70.2179 11.5771C69.5715 11.5771 69.1944 11.9347 69.1944 12.5987V13.1096ZM37.5221 16.9919H38.2762C38.4378 16.9919 38.5994 16.8386 38.5994 16.6854V12.9052C38.5994 11.1684 37.6298 10.1468 36.0139 10.1468C35.5291 10.1468 34.9904 10.2489 34.6673 10.3511V8.46103C34.6673 8.05237 34.2902 7.69479 33.8593 7.69479H33.1052C32.9436 7.69479 32.782 7.84804 32.782 8.00129V16.6854C32.782 16.8386 32.9436 16.9919 33.1052 16.9919H34.3441C34.5057 16.9919 34.6673 16.8386 34.6673 16.6854V11.8836C34.9366 11.7814 35.3136 11.7303 35.583 11.7303C36.3909 11.7303 36.7141 12.0879 36.7141 12.9563V16.2767C36.768 16.6343 37.0912 16.9919 37.5221 16.9919ZM45.6556 12.7009V14.591C45.6556 16.1745 44.5245 17.1451 42.6392 17.1451C40.8078 17.1451 39.6228 16.1745 39.6228 14.591V12.7009C39.6228 11.1173 40.754 10.1468 42.6392 10.1468C44.5245 10.1468 45.6556 11.1173 45.6556 12.7009ZM43.7704 12.7009C43.7704 12.0879 43.3933 11.6792 42.6931 11.6792C41.9928 11.6792 41.6158 12.0368 41.6158 12.7009V14.591C41.6158 15.204 41.9928 15.5615 42.6931 15.5615C43.3933 15.5615 43.7704 15.204 43.7704 14.591V12.7009ZM31.7586 11.8325C31.7586 13.4671 30.4658 14.591 28.7422 14.591C28.3112 14.591 27.9342 14.5399 27.5571 14.3866V16.6854C27.5571 16.8386 27.3955 16.9919 27.2339 16.9919H25.9951C25.8335 16.9919 25.6719 16.8386 25.6719 16.6854V8.5632C25.6719 8.35887 25.8335 8.20562 25.9951 8.15454C26.803 7.89912 27.611 7.74588 28.4728 7.74588C30.412 7.74588 31.7586 8.8697 31.7586 10.6065V11.8325ZM29.8194 10.5043C29.8194 9.68702 29.2269 9.27836 28.419 9.27836C27.9342 9.27836 27.611 9.43161 27.611 9.43161V12.8031C27.9342 12.9563 28.0958 13.0074 28.4728 13.0074C29.2808 13.0074 29.8733 12.5477 29.8733 11.7814V10.5043H29.8194ZM66.5551 11.8325C66.5551 13.4671 65.2623 14.591 63.5387 14.591C63.1077 14.591 62.7307 14.5399 62.3536 14.3866V16.6854C62.3536 16.8386 62.192 16.9919 62.0304 16.9919H60.7916C60.63 16.9919 60.4684 16.8386 60.4684 16.6854V8.5632C60.4684 8.35887 60.63 8.20562 60.7916 8.15454C61.5995 7.89912 62.4075 7.74588 63.2693 7.74588C65.2085 7.74588 66.5551 8.8697 66.5551 10.6065V11.8325ZM64.616 10.5043C64.616 9.68702 64.0234 9.27836 63.2155 9.27836C62.7307 9.27836 62.4075 9.43161 62.4075 9.43161V12.8031C62.7307 12.9563 62.8923 13.0074 63.2693 13.0074C64.0773 13.0074 64.6698 12.5477 64.6698 11.7814V10.5043H64.616Z" fill="white"/>
<path d="M15.9753 8.61427C15.9753 8.25669 15.6521 7.9502 15.2751 7.9502H13.9823L11.0198 4.73199C10.7505 4.42549 10.3196 4.32332 9.88864 4.42549L8.86521 4.73199C8.70362 4.78307 8.64975 4.9874 8.75748 5.08956L11.9894 8.00128H7.08768C6.92609 8.00128 6.81836 8.10344 6.81836 8.25669V8.76752C6.81836 9.1251 7.14155 9.4316 7.5186 9.4316H8.2727V11.8836C8.2727 13.7225 9.29613 14.7953 11.0198 14.7953C11.5584 14.7953 11.9894 14.7442 12.528 14.5399V16.1745C12.528 16.6343 12.9051 16.9918 13.3898 16.9918H14.1439C14.3055 16.9918 14.4671 16.8386 14.4671 16.6853V9.38051H15.706C15.8676 9.38051 15.9753 9.27835 15.9753 9.1251V8.61427ZM12.528 13.0074C12.2048 13.1606 11.7739 13.2117 11.4507 13.2117C10.5889 13.2117 10.158 12.8031 10.158 11.8836V9.4316H12.528V13.0074Z" fill="black"/>
</g>
<defs>
<clipPath id="clip0_424_1167">
<rect width="73" height="22" fill="white"/>
</clipPath>
</defs>
</svg>
