<svg width="22" height="22" viewBox="0 0 22 22" fill="none" xmlns="http://www.w3.org/2000/svg">
<path d="M10.9985 0.183075C8.06049 0.183075 7.69177 0.195922 6.53784 0.248435C5.38615 0.301173 4.60003 0.483505 3.91218 0.751029C3.20066 1.02734 2.5971 1.39696 1.99579 1.9985C1.39403 2.59981 1.02441 3.20337 0.74719 3.91467C0.47899 4.60275 0.296434 5.38909 0.244597 6.54032C0.19321 7.69426 0.179688 8.06321 0.179688 11.0012C0.179688 13.9393 0.19276 14.3069 0.245047 15.4608C0.298011 16.6125 0.480342 17.3986 0.747641 18.0865C1.02418 18.798 1.3938 19.4015 1.99534 20.0029C2.59642 20.6046 3.19998 20.9751 3.91105 21.2515C4.59936 21.519 5.3857 21.7013 6.53716 21.754C7.6911 21.8066 8.05959 21.8194 10.9974 21.8194C13.9357 21.8194 14.3033 21.8066 15.4572 21.754C16.6089 21.7013 17.3959 21.519 18.0842 21.2515C18.7955 20.9751 19.3982 20.6046 19.9992 20.0029C20.601 19.4015 20.9706 18.798 21.2478 18.0867C21.5138 17.3986 21.6963 16.6123 21.7504 15.461C21.8023 14.3071 21.8158 13.9393 21.8158 11.0012C21.8158 8.06321 21.8023 7.69449 21.7504 6.54055C21.6963 5.38887 21.5138 4.60275 21.2478 3.91489C20.9706 3.20337 20.601 2.59981 19.9992 1.9985C19.3975 1.39674 18.7957 1.02712 18.0835 0.751029C17.3939 0.483505 16.6073 0.301173 15.4556 0.248435C14.3017 0.195922 13.9343 0.183075 10.9954 0.183075H10.9985ZM10.028 2.1326C10.3161 2.13215 10.6375 2.1326 10.9985 2.1326C13.887 2.1326 14.2293 2.14297 15.37 2.1948C16.4247 2.24303 16.9972 2.41928 17.3785 2.56735C17.8834 2.76343 18.2433 2.99783 18.6217 3.37646C19.0004 3.7551 19.2348 4.1157 19.4313 4.62055C19.5794 5.00144 19.7558 5.5739 19.8038 6.62867C19.8557 7.76909 19.8669 8.11166 19.8669 10.9988C19.8669 13.8859 19.8557 14.2284 19.8038 15.3688C19.7556 16.4236 19.5794 16.9961 19.4313 17.377C19.2352 17.8818 19.0004 18.2413 18.6217 18.6197C18.2431 18.9983 17.8836 19.2327 17.3785 19.4288C16.9976 19.5776 16.4247 19.7534 15.37 19.8016C14.2296 19.8534 13.887 19.8647 10.9985 19.8647C8.10985 19.8647 7.7675 19.8534 6.62709 19.8016C5.57232 19.7529 4.99986 19.5767 4.61829 19.4286C4.11344 19.2325 3.75284 18.9981 3.3742 18.6195C2.99557 18.2408 2.76117 17.8811 2.56464 17.3761C2.41657 16.9952 2.2401 16.4227 2.19209 15.3679C2.14025 14.2275 2.12989 13.885 2.12989 10.9961C2.12989 8.10715 2.14025 7.76638 2.19209 6.62597C2.24032 5.5712 2.41657 4.99874 2.56464 4.6174C2.76072 4.11255 2.99557 3.75194 3.3742 3.37331C3.75284 2.99467 4.11344 2.76028 4.61829 2.56375C4.99963 2.415 5.57232 2.2392 6.62709 2.19075C7.62506 2.14567 8.01181 2.13215 10.028 2.12989V2.1326ZM16.7732 3.92886C16.5164 3.92886 16.2654 4.00501 16.0519 4.14768C15.8384 4.29034 15.672 4.49312 15.5738 4.73036C15.4755 4.96759 15.4498 5.22864 15.5 5.48047C15.5501 5.73231 15.6738 5.96362 15.8554 6.14516C16.037 6.32669 16.2683 6.4503 16.5202 6.50034C16.772 6.55037 17.0331 6.5246 17.2703 6.42628C17.5075 6.32795 17.7102 6.16149 17.8528 5.94795C17.9954 5.7344 18.0714 5.48337 18.0714 5.22659C18.0714 4.50989 17.4899 3.92841 16.7732 3.92841V3.92886ZM10.9985 5.44566C7.93045 5.44566 5.44295 7.93316 5.44295 11.0012C5.44295 14.0693 7.93045 16.5557 10.9985 16.5557C14.0666 16.5557 16.5534 14.0693 16.5534 11.0012C16.5534 7.93316 14.0664 5.44566 10.9983 5.44566H10.9985ZM10.9985 7.39518C12.99 7.39518 14.6046 9.00957 14.6046 11.0012C14.6046 12.9927 12.99 14.6073 10.9985 14.6073C9.00686 14.6073 7.39247 12.9927 7.39247 11.0012C7.39247 9.00957 9.00686 7.39518 10.9985 7.39518Z" fill="white"/>
</svg>
