<svg width="22" height="22" viewBox="0 0 22 22" fill="none" xmlns="http://www.w3.org/2000/svg">
<path d="M11.0019 21.9872C17.0694 21.9872 21.9882 17.0685 21.9882 11.0009C21.9882 4.9334 17.0694 0.014679 11.0019 0.014679C4.93435 0.014679 0.015625 4.9334 0.015625 11.0009C0.015625 17.0685 4.93435 21.9872 11.0019 21.9872Z" fill="white"/>
<path d="M4.58641 10.9048L11.9848 7.85655C12.7151 7.53904 15.1918 6.52299 15.1918 6.52299C15.1918 6.52299 16.3349 6.07851 16.2396 7.158C16.2079 7.60249 15.954 9.15842 15.6999 10.8411L14.9061 15.8262C14.9061 15.8262 14.8426 16.5565 14.3018 16.6835C13.7611 16.8104 12.873 16.239 12.7143 16.1119C12.5873 16.0167 10.3329 14.5878 9.50726 13.8893C9.28497 13.6989 9.031 13.3177 9.53902 12.8732C10.6821 11.8254 12.0476 10.5236 12.873 9.69803C13.254 9.31699 13.6351 8.42792 12.0475 9.5076L7.57038 12.5241C7.57038 12.5241 7.06226 12.8416 6.10975 12.5558C5.15724 12.2701 4.04589 11.8891 4.04589 11.8891C4.04589 11.8891 3.28381 11.4128 4.58568 10.9049L4.58641 10.9048Z" fill="black"/>
</svg>
