<svg width="22" height="22" viewBox="0 0 22 22" fill="none" xmlns="http://www.w3.org/2000/svg">
<path d="M21.9569 4.18918C21.1333 4.55181 20.2607 4.79119 19.3673 4.89959C20.3079 4.33424 21.0122 3.44763 21.3501 2.40351C20.4783 2.91226 19.5122 3.28259 18.4837 3.48884C17.8051 2.76324 16.906 2.28198 15.9258 2.1198C14.9457 1.95763 13.9395 2.1236 13.0634 2.59197C12.1872 3.06033 11.4903 3.80486 11.0807 4.70996C10.6711 5.61505 10.5719 6.63005 10.7983 7.59734C7.04917 7.42043 3.72808 5.61918 1.50333 2.89851C1.09889 3.58584 0.887942 4.36978 0.892833 5.16726C0.892833 6.73476 1.69033 8.11251 2.8985 8.92193C2.18245 8.89913 1.48222 8.70553 0.856167 8.35726V8.41226C0.855761 9.45395 1.21575 10.4637 1.87505 11.2702C2.53435 12.0767 3.45236 12.6303 4.47333 12.837C3.81177 13.0143 3.11888 13.0409 2.44567 12.9149C2.73545 13.8114 3.29786 14.5951 4.05443 15.1566C4.811 15.7181 5.72399 16.0295 6.666 16.0472C5.07057 17.2993 3.1006 17.9789 1.0725 17.9768C0.715 17.9768 0.358417 17.9557 0 17.9153C2.06773 19.2393 4.47197 19.9421 6.92725 19.9403C15.2258 19.9403 19.7588 13.0689 19.7588 7.12068C19.7588 6.92818 19.7588 6.73568 19.745 6.54318C20.6305 5.90597 21.3943 5.11484 22 4.20751L21.9569 4.18918Z" fill="white"/>
</svg>
